<?xml version="1.0" encoding="UTF-8"?>
<svg width="18px" height="18px" viewBox="0 0 18 18" version="1.1" xmlns="http://www.w3.org/2000/svg" xmlns:xlink="http://www.w3.org/1999/xlink">
    <!-- Generator: Sketch 60.1 (88133) - https://sketch.com -->
    <title>my order_star-nl</title>
    <desc>Created with Sketch.</desc>
    <g id="我的-订单" stroke="none" stroke-width="1" fill="none" fill-rule="evenodd">
        <g id="订单详情-评价-状态1" transform="translate(-243.000000, -121.000000)" fill-rule="nonzero" stroke="#898989">
            <path d="M252.195516,121.636736 L252.189826,121.624214 C252.156784,121.548751 252.082218,121.5 251.999847,121.5 C251.917476,121.5 251.84291,121.548751 251.804178,121.636736 L249.302004,126.948559 L249.038493,126.988664 L243.691169,127.802482 C243.511229,127.829364 243.428748,128.095273 243.574898,128.245128 L247.61833,132.373367 L247.577531,132.623086 L246.666708,138.19796 C246.631616,138.412277 246.82432,138.558894 246.977957,138.474759 L251.999765,135.710431 L252.240836,135.843041 L257.020783,138.472435 C257.176028,138.557452 257.368142,138.411492 257.332984,138.196142 L256.379483,132.371566 L256.556697,132.190718 L260.42372,128.24439 C260.571245,128.094394 260.489168,127.830022 260.307172,127.802278 L254.69769,126.948559 L252.195516,121.636736 Z" id="my-order_star-nl"></path>
        </g>
    </g>
</svg>