<?xml version="1.0" encoding="UTF-8"?>
<svg width="18px" height="18px" viewBox="0 0 18 18" version="1.1" xmlns="http://www.w3.org/2000/svg" xmlns:xlink="http://www.w3.org/1999/xlink">
    <!-- Generator: Sketch 60.1 (88133) - https://sketch.com -->
    <title>my order_star-sel</title>
    <desc>Created with Sketch.</desc>
    <g id="我的-订单" stroke="none" stroke-width="1" fill="none" fill-rule="evenodd">
        <g id="订单详情-评价-状态1" transform="translate(-91.000000, -121.000000)" fill="#FA4949" fill-rule="nonzero">
            <path d="M100.647843,121.423664 L103.036431,126.494355 L108.382402,127.30797 C108.972799,127.397972 109.210397,128.157586 108.7802,128.594994 L104.913821,132.540665 L105.826416,138.115366 C105.927215,138.732777 105.309818,139.200786 104.780621,138.910981 L99.999847,136.281133 L95.2190727,138.912781 C94.6898756,139.202586 94.0724789,138.732777 94.1732784,138.117166 L95.0840735,132.542465 L91.2176943,128.594994 C90.7910966,128.157586 91.0268953,127.396172 91.6172921,127.30797 L96.9632633,126.494355 L99.3518505,121.423664 C99.4645482,121.166284 99.7188812,121 99.999847,121 C100.280813,121 100.535146,121.166284 100.647843,121.423664 Z" id="my-order_star-sel"></path>
        </g>
    </g>
</svg>